<svg width="22" height="22" viewBox="0 0 22 22" fill="none" xmlns="http://www.w3.org/2000/svg">
<path d="M18.6526 3.52022C18.6465 3.5075 18.6363 3.49753 18.624 3.4921C17.1976 2.78932 15.6924 2.28818 14.1459 2.00123C14.1319 1.99842 14.1174 2.00045 14.1044 2.00701C14.0915 2.01358 14.0809 2.02435 14.074 2.03779C13.869 2.43728 13.683 2.84763 13.5165 3.26726C11.8495 2.99552 10.1539 2.99552 8.48694 3.26726C8.31938 2.84656 8.13033 2.43612 7.92066 2.03779C7.91347 2.02464 7.90275 2.01412 7.88991 2.00759C7.87707 2.00107 7.8627 1.99886 7.84867 2.00123C6.30207 2.28758 4.79673 2.78875 3.37053 3.49214C3.35833 3.4977 3.34802 3.50719 3.34105 3.5193C0.488935 8.09316 -0.292367 12.5546 0.0909135 16.9607C0.0919917 16.9715 0.0950813 16.982 0.0999984 16.9915C0.104915 17.001 0.11156 17.0093 0.119536 17.016C1.7803 18.3365 3.63788 19.3444 5.61301 19.9968C5.62692 20.0013 5.64177 20.0011 5.65557 19.9962C5.66937 19.9913 5.68145 19.9821 5.6902 19.9696C6.11441 19.3498 6.4903 18.6934 6.81403 18.0072C6.81848 17.9978 6.82102 17.9875 6.82148 17.9769C6.82195 17.9664 6.82033 17.9558 6.81672 17.946C6.81312 17.9362 6.80762 17.9273 6.80059 17.9199C6.79355 17.9126 6.78514 17.9069 6.77591 17.9032C6.18316 17.6597 5.60931 17.3661 5.05975 17.0252C5.04977 17.0189 5.04138 17.0101 5.03534 16.9995C5.02929 16.9888 5.02577 16.9768 5.02509 16.9644C5.0244 16.952 5.02658 16.9396 5.03142 16.9283C5.03625 16.917 5.04361 16.9071 5.05283 16.8996C5.16847 16.8068 5.28211 16.7112 5.39364 16.6129C5.40343 16.6042 5.41526 16.5987 5.42782 16.5968C5.44038 16.595 5.45317 16.597 5.46473 16.6026C9.06515 18.3671 12.9631 18.3671 16.5209 16.6026C16.5325 16.5966 16.5454 16.5944 16.5581 16.596C16.5709 16.5977 16.5829 16.6032 16.5929 16.6119C16.7045 16.7108 16.8185 16.8068 16.9346 16.8996C16.9438 16.9071 16.9512 16.9168 16.9562 16.9281C16.9611 16.9393 16.9633 16.9517 16.9627 16.9641C16.9621 16.9766 16.9587 16.9886 16.9527 16.9993C16.9468 17.0099 16.9384 17.0188 16.9285 17.0252C16.3802 17.369 15.8058 17.6624 15.2115 17.9023C15.2023 17.9061 15.1939 17.9119 15.1869 17.9194C15.1799 17.9269 15.1745 17.9359 15.171 17.9458C15.1674 17.9557 15.1659 17.9663 15.1664 17.9769C15.167 17.9874 15.1696 17.9978 15.1741 18.0072C15.5033 18.6896 15.8786 19.3451 16.2971 19.9685C16.3056 19.9813 16.3176 19.9909 16.3314 19.996C16.3453 20.001 16.3603 20.0013 16.3743 19.9967C18.3529 19.3465 20.2138 18.3385 21.8766 17.016C21.8847 17.0096 21.8914 17.0015 21.8964 16.9921C21.9013 16.9828 21.9043 16.9724 21.9052 16.9616C22.3641 11.8677 21.137 7.44283 18.6526 3.52022ZM7.35172 14.2778C6.26773 14.2778 5.37456 13.2096 5.37456 11.8977C5.37456 10.5858 6.25041 9.51746 7.35172 9.51746C8.46164 9.51746 9.34618 10.595 9.32885 11.8976C9.32885 13.2096 8.45296 14.2778 7.35172 14.2778ZM14.6619 14.2778C13.5779 14.2778 12.6848 13.2096 12.6848 11.8977C12.6848 10.5858 13.5606 9.51746 14.6619 9.51746C15.7719 9.51746 16.6564 10.595 16.639 11.8976C16.639 13.2096 15.7719 14.2778 14.6619 14.2778Z" fill="#4E5465"/>
</svg>
