<svg width="22" height="22" viewBox="0 0 22 22" fill="none" xmlns="http://www.w3.org/2000/svg">
<path d="M20.9356 6.90309C20.9244 6.06334 20.7669 5.23193 20.4702 4.44606C20.213 3.78318 19.82 3.18117 19.3165 2.67849C18.813 2.17581 18.21 1.78351 17.546 1.52667C16.7689 1.23546 15.948 1.07799 15.1182 1.06098C14.0498 1.01331 13.711 1 10.9989 1C8.28676 1 7.93914 1 6.8785 1.06098C6.04904 1.07812 5.22851 1.23558 4.4518 1.52667C3.78771 1.78333 3.18461 2.17557 2.68107 2.67827C2.17753 3.18097 1.78464 3.78308 1.52754 4.44606C1.23526 5.22124 1.07788 6.04059 1.06219 6.86872C1.01444 7.93647 1 8.27464 1 10.9823C1 13.6899 1 14.0358 1.06219 15.0958C1.07885 15.9252 1.23545 16.7434 1.52754 17.5207C1.78507 18.1835 2.17825 18.7853 2.68196 19.2878C3.18567 19.7903 3.78883 20.1824 4.45291 20.439C5.22749 20.7419 6.04817 20.9106 6.87961 20.9379C7.94913 20.9856 8.28787 21 11 21C13.7121 21 14.0598 21 15.1204 20.9379C15.9502 20.9216 16.7712 20.7645 17.5482 20.4733C18.212 20.2162 18.8149 19.8238 19.3183 19.3211C19.8218 18.8185 20.2149 18.2166 20.4725 17.5539C20.7646 16.7778 20.9211 15.9595 20.9378 15.1291C20.9856 14.0624 21 13.7243 21 11.0155C20.9978 8.30791 20.9978 7.96419 20.9356 6.90309ZM10.9922 16.1026C8.15571 16.1026 5.85784 13.8085 5.85784 10.9767C5.85784 8.14492 8.15571 5.85087 10.9922 5.85087C12.354 5.85087 13.6599 6.39091 14.6228 7.3522C15.5857 8.31348 16.1266 9.61726 16.1266 10.9767C16.1266 12.3362 15.5857 13.64 14.6228 14.6012C13.6599 15.5625 12.354 16.1026 10.9922 16.1026ZM16.331 6.85653C16.1737 6.85667 16.0179 6.82586 15.8726 6.76584C15.7273 6.70582 15.5953 6.61779 15.4841 6.50677C15.3729 6.39575 15.2847 6.26393 15.2246 6.11885C15.1644 5.97377 15.1336 5.81828 15.1337 5.66127C15.1337 5.50438 15.1647 5.34903 15.2248 5.20408C15.285 5.05913 15.3731 4.92743 15.4842 4.81649C15.5953 4.70555 15.7273 4.61755 15.8725 4.55751C16.0176 4.49747 16.1733 4.46657 16.3304 4.46657C16.4876 4.46657 16.6432 4.49747 16.7884 4.55751C16.9336 4.61755 17.0655 4.70555 17.1766 4.81649C17.2877 4.92743 17.3759 5.05913 17.436 5.20408C17.4961 5.34903 17.5271 5.50438 17.5271 5.66127C17.5271 6.3221 16.9918 6.85653 16.331 6.85653Z" fill="#4E5465"/>
<path d="M11 14.3333C12.841 14.3333 14.3333 12.841 14.3333 11C14.3333 9.15905 12.841 7.66667 11 7.66667C9.15905 7.66667 7.66667 9.15905 7.66667 11C7.66667 12.841 9.15905 14.3333 11 14.3333Z" fill="#4E5465"/>
</svg>
