<svg width="22" height="22" viewBox="0 0 22 22" fill="none" xmlns="http://www.w3.org/2000/svg">
<path d="M4.31118 1C1.94037 1 0 2.76393 0 4.91925V17.0814C0 19.2367 1.94032 21 4.31118 21H17.6895C20.0604 21 22 19.2367 22 17.0814V4.91925C22 2.76397 20.0604 1 17.6895 1H4.31118ZM5.3955 4.3004C6.53226 4.3004 7.23245 4.97882 7.25406 5.87059C7.25406 6.74267 6.53221 7.44015 5.37352 7.44015H5.35219C4.23707 7.44015 3.51632 6.74271 3.51632 5.87059C3.51632 4.97884 4.25888 4.3004 5.39548 4.3004H5.3955ZM15.1915 8.46842C17.3777 8.46842 19.0166 9.76743 19.0166 12.5589V17.7702H15.6942V12.9083C15.6942 11.6866 15.2133 10.8531 14.011 10.8531C13.0931 10.8531 12.546 11.4149 12.3058 11.9576C12.218 12.1518 12.1964 12.4229 12.1964 12.6946V17.7702H8.87401C8.87401 17.7702 8.91761 9.53433 8.87401 8.68156H12.1971V9.9686C12.6386 9.34933 13.4284 8.4684 15.1915 8.4684V8.46842ZM3.7123 8.68222H7.03471V17.7702H3.7123V8.68222Z" fill="#4E5465"/>
</svg>
