<svg width="22" height="22" viewBox="0 0 22 22" fill="none" xmlns="http://www.w3.org/2000/svg">
<path d="M6.91882 18.9999C15.2211 18.9999 19.7613 12.4601 19.7613 6.78922C19.7613 6.60348 19.7572 6.4185 19.7485 6.23455C20.6297 5.62872 21.3956 4.87271 22 4.01219C21.1913 4.35412 20.3208 4.58399 19.408 4.68799C20.3398 4.15648 21.0553 3.31605 21.3927 2.31417C20.5206 2.80577 19.5547 3.16293 18.5266 3.35583C17.7029 2.52166 16.5302 2 15.2317 2C12.7393 2 10.7178 3.92188 10.7178 6.29097C10.7178 6.62791 10.7575 6.95539 10.8349 7.26956C7.08349 7.09009 3.75688 5.38247 1.53092 2.78569C1.14345 3.41979 0.919845 4.15661 0.919845 4.94281C0.919845 6.43155 1.71672 7.74619 2.92838 8.51499C2.18788 8.49337 1.49231 8.30009 0.884192 7.97837C0.88352 7.9964 0.88352 8.01393 0.88352 8.03312C0.88352 10.1116 2.43933 11.8469 4.50491 12.2402C4.12551 12.3383 3.72633 12.3911 3.31464 12.3911C3.02431 12.3911 2.74124 12.364 2.46624 12.3137C3.04086 14.0189 4.70726 15.2597 6.68284 15.2945C5.13792 16.4458 3.19181 17.1316 1.07672 17.1316C0.712924 17.1316 0.3533 17.1118 0 17.0721C1.99764 18.2895 4.3697 19 6.91895 19" fill="#4E5465"/>
</svg>
