<svg width="22" height="22" viewBox="0 0 22 22" fill="none" xmlns="http://www.w3.org/2000/svg">
<path d="M11 21C16.5229 21 21 16.5229 21 11C21 5.47715 16.5229 1 11 1C5.47715 1 1 5.47715 1 11C1 16.5229 5.47715 21 11 21Z" stroke="#4E5465" stroke-width="1.5" stroke-linecap="round" stroke-linejoin="round"/>
<path d="M1 11H21" stroke="#4E5465" stroke-width="1.5" stroke-linecap="round" stroke-linejoin="round"/>
<path d="M11 21C13.2092 21 15 16.5229 15 11C15 5.47715 13.2092 1 11 1C8.79085 1 7 5.47715 7 11C7 16.5229 8.79085 21 11 21Z" stroke="#4E5465" stroke-width="1.5" stroke-linecap="round" stroke-linejoin="round"/>
<path d="M3.92871 4.07104C5.73836 5.88069 8.23836 6.99999 10.9998 6.99999C13.7612 6.99999 16.2612 5.88069 18.0709 4.07104" stroke="#4E5465" stroke-width="1.5" stroke-linecap="round" stroke-linejoin="round"/>
<path d="M18.0709 17.9289C16.2612 16.1193 13.7612 15 10.9998 15C8.23836 15 5.73836 16.1193 3.92871 17.9289" stroke="#4E5465" stroke-width="1.5" stroke-linecap="round" stroke-linejoin="round"/>
</svg>
