<svg width="22" height="22" viewBox="0 0 22 22" fill="none" xmlns="http://www.w3.org/2000/svg">
<path fill-rule="evenodd" clip-rule="evenodd" d="M5 0H12.9395C13.3373 7.78764e-05 13.7188 0.144995 14 0.402875L19.5605 5.5C19.8418 5.7578 19.9999 6.10748 20 6.47212V19.25C20 19.9793 19.6839 20.6788 19.1213 21.1945C18.5587 21.7103 17.7956 22 17 22H5C4.20435 22 3.44129 21.7103 2.87868 21.1945C2.31607 20.6788 2 19.9793 2 19.25V2.75C2 2.02065 2.31607 1.32118 2.87868 0.805456C3.44129 0.289731 4.20435 0 5 0V0ZM13.25 2.0625V4.8125C13.25 5.17717 13.408 5.52691 13.6893 5.78477C13.9706 6.04263 14.3522 6.1875 14.75 6.1875H17.75L13.25 2.0625ZM5.2475 18.7935C5.3825 19.041 5.5925 19.2651 5.9045 19.3696C6.215 19.4727 6.5225 19.4246 6.7745 19.3284C7.2515 19.1496 7.727 18.7289 8.1635 18.2476C8.663 17.6962 9.188 16.973 9.695 16.1714C10.6738 15.9054 11.6761 15.7187 12.6905 15.6131C13.1405 16.1397 13.6055 16.5935 14.0555 16.9194C14.4755 17.2219 14.96 17.4735 15.4565 17.4928C15.7269 17.505 15.9947 17.4386 16.2215 17.303C16.454 17.1641 16.6265 16.9634 16.7525 16.731C16.8875 16.4821 16.97 16.2222 16.9595 15.9569C16.95 15.6952 16.8443 15.4442 16.6595 15.2446C16.3205 14.8734 15.7655 14.6946 15.2195 14.6052C14.5572 14.5112 13.8851 14.4881 13.217 14.5365C12.6528 13.8053 12.1608 13.0295 11.747 12.2182C12.122 11.3107 12.4025 10.4528 12.527 9.7515C12.581 9.45175 12.6095 9.16575 12.599 8.90725C12.5971 8.65066 12.532 8.39777 12.4085 8.1675C12.3373 8.04042 12.2362 7.92945 12.1125 7.84264C11.9887 7.75584 11.8454 7.69537 11.693 7.66562C11.39 7.6065 11.078 7.66563 10.7915 7.7715C10.226 7.97775 9.9275 8.41775 9.815 8.90312C9.7055 9.37062 9.755 9.91512 9.884 10.4651C10.016 11.0234 10.241 11.6311 10.529 12.2458C10.0683 13.296 9.53629 14.3187 8.936 15.3079C8.16296 15.5308 7.41782 15.8281 6.713 16.1947C6.158 16.4972 5.6645 16.8547 5.3675 17.2769C5.0525 17.7251 4.955 18.2586 5.2475 18.7935Z" fill="#4E5465"/>
</svg>
