<svg width="22" height="22" viewBox="0 0 22 22" fill="none" xmlns="http://www.w3.org/2000/svg">
<path d="M21.5408 5.49936C21.4156 5.01538 21.1701 4.57402 20.8288 4.21945C20.4875 3.86488 20.0625 3.60954 19.5962 3.47898C17.8799 3 11 3 11 3C11 3 4.12009 3 2.40379 3.47643C1.93733 3.60657 1.51207 3.86177 1.17073 4.21641C0.829388 4.57104 0.58398 5.01263 0.459152 5.49682C-9.36644e-08 7.28025 0 11 0 11C0 11 -9.36644e-08 14.7197 0.459152 16.5006C0.712053 17.4841 1.45848 18.2586 2.40379 18.521C4.12009 19 11 19 11 19C11 19 17.8799 19 19.5962 18.521C20.544 18.2586 21.2879 17.4841 21.5408 16.5006C22 14.7197 22 11 22 11C22 11 22 7.28025 21.5408 5.49936ZM8.81473 14.414V7.58599L14.5112 10.9745L8.81473 14.414Z" fill="#4E5465"/>
</svg>
